<svg height="297mm" width="210mm" xmlns="http://www.w3.org/2000/svg" xmlns:xlink="http://www.w3.org/1999/xlink"><linearGradient id="a"><stop offset="0"/><stop offset="1" stop-opacity="0"/></linearGradient><radialGradient id="b" cx="380" cy="738.79077" gradientTransform="matrix(1 0 0 .18965517 0 598.67528)" gradientUnits="userSpaceOnUse" r="207.14285" xlink:href="#a"/><linearGradient id="c" gradientTransform="matrix(1.0105719 0 0 1.0245186 -4.295728 -12.220643)" gradientUnits="userSpaceOnUse" x1="322.55499" x2="531.71423" y1="411.56726" y2="518.38623"><stop offset="0" stop-color="#fff"/><stop offset="1" stop-color="#fff" stop-opacity=".01"/></linearGradient><linearGradient id="d" gradientTransform="matrix(1.0387675 0 0 .8205786 -15.32921 115.73273)" gradientUnits="userSpaceOnUse" x1="280.64655" x2="526.20142" y1="610.32861" y2="668.18677"><stop offset="0" stop-color="#fff"/><stop offset="1" stop-color="#fff" stop-opacity="0"/></linearGradient><linearGradient id="e" gradientUnits="userSpaceOnUse" x1="275.80719" x2="549.99249" y1="655.37219" y2="760.4281"><stop offset="0" stop-color="#eeeeec"/><stop offset="1" stop-color="#eeeeec" stop-opacity="0"/></linearGradient><linearGradient id="f" gradientUnits="userSpaceOnUse" x1="595.57159" x2="548.91394" xlink:href="#a" y1="817.54028" y2="428.63156"/><path d="m25.714285 155.21933h700v700h-700z" fill="none"/><g transform="matrix(1.5506536 0 0 1.5506536 -251.96045 -357.81688)"><path d="m587.14285 738.79077c0 21.6969-92.74101 39.28571-207.14285 39.28571s-207.14285-17.58881-207.14285-39.28571 92.74101-39.28571 207.14285-39.28571 207.14285 17.58881 207.14285 39.28571z" fill="url(#b)" opacity=".708589" transform="matrix(.89569662 .04008398 -.04382039 1.0717472 112.00939 -80.809514)"/><g stroke-width="7"><path d="m263.92029 660.4636 13.98369-6.99927.0613 5.71864z" fill="#eeeeec" stroke="#babdb6" stroke-linecap="round" stroke-linejoin="round"/><path d="m278.41958 613.66012 20.03408-7.12182-.4438 7.89739z" fill="#eeeeec" stroke="#babdb6" stroke-linejoin="round"/><path d="m518.79998 375.20284 18.68782 8.64757.0449 227.79869 8.93699 4.98421-.12419 45.98242 20.75115 1.75342-.619 69.78552-19.67259 6.50473-.8279-68.20663-17.58709-.7452.0242-49.6807-8.78306-3.23752z" fill="#babdb6" stroke="#888a85" stroke-linejoin="round"/><path d="m299.51022 617.49152 214.65742 7.57614-.50508-253.04321c-42.6659-29.14043-141.0451-53.18382-215.16249 8.58629z" fill="#555753" stroke="#2e3436" stroke-linejoin="round"/><path d="m277.28687 615.97629 244.45691 8.58629 1.01016 51.51778-244.962-12.6269z" fill="#555753" stroke="#2e3436" stroke-linejoin="round"/><path d="m263.14473 662.4433.00001 60.10408 277.28687 18.68782-1.01016-64.64976z" fill="#555753" stroke="#2e3436" stroke-linejoin="round"/></g><path d="m305.97774 609.84426 200.94017 7.16432-.47111-241.0741c-39.79746-27.55642-131.20542-48.15002-200.69701 8.11957z" fill="url(#c)" opacity=".834356" stroke="#fff" stroke-width="6.574205"/><path d="m283.92113 622.21821 231.23857 8.5886.60284 38.31734-231.71857-10.19332z" fill="url(#d)" opacity=".733129" stroke="#fff" stroke-width="5.91241"/><path d="m269.93044 669.22901-.71427 47.24694 264.78687 17.97354-.65302-51.79262z" fill="url(#e)" opacity=".638037" stroke="#fff" stroke-width="6"/><path d="m544.64287 674.50504c-1.42858 0 21.07142-8.57143 21.07142-8.57143" fill="none" stroke="#888a85" stroke-width="7"/><path d="m530 669.1479 17.50001-6.07143" fill="none" stroke="#888a85" stroke-width="7"/><path d="m527.5 622.00504 20-4.64286" fill="none" stroke="#888a85" stroke-width="7"/><path d="m522.85715 616.29075 14.64285-2.85714" fill="none" stroke="#888a85" stroke-linecap="round" stroke-width="7"/><path d="m518.79998 375.20284 18.68782 8.64757.0449 227.79869 8.93699 4.98421-.12419 45.98242 20.75115 1.75342-.619 69.78552-19.67259 6.50473-.8279-68.20663-17.58709-.7452.0242-49.6807-8.78306-3.23752z" fill="url(#f)" opacity=".708589"/></g><g stroke-dashoffset="22.8018" stroke-linecap="round" stroke-linejoin="round" stroke-width="3.817122"><path d="m370.70233 241.77463v66.91891h-67.83916v16.51247h67.83916v161.17113h17.92678v-161.17113h66.28842v-16.51247h-66.28842v-66.91891z" fill="#555753" stroke="#2e3436"/><path d="m366.70233 237.91749v66.91891h-67.83916v16.51247h67.83916v161.17113h17.92678v-161.17113h66.28842v-16.51247h-66.28842v-66.91891z" stroke="#000"/></g></svg>